# xmcd
#
# Track frame offsets:
#	150
#	17779
#	34310
#	58996
#	75836
#	95971
#	112661
#	126482
#	142560
#	162922
#	178022
#	197147
#	219283
#	237412
#	251017
#	267036
#	288758
#	302889
#	324299
#	337782
#
# Disc length: 4784 seconds
#
# Revision: 2
# Processed by: cddbd v1.5.1PL2 Copyright (c) Steve Scherf et al.
# Submitted via: audiograbber 1.83.01
#
DISCID=1212ae14
DTITLE=Demis Roussos - The Very Best Of
DYEAR=2005
DGENRE=Pop
TTITLE0=Goodbye My Love Goodbye
TTITLE1=Forever And Ever
TTITLE2=My Friend The Wind
TTITLE3=End Of The World
TTITLE4=My Reason
TTITLE5=I Want To Live
TTITLE6=Paloma Blanca
TTITLE7=One Way Wind
TTITLE8=We Shall Dance
TTITLE9=Rain And Tears
TTITLE10=No More Boleros
TTITLE11=Spring Summer Winter And Fall
TTITLE12=Mon Amour
TTITLE13=When Forever Has Gone
TTITLE14=Come Waltz With Me
TTITLE15=If I Could Only Be With You
TTITLE16=In My Dreams
TTITLE17=Sailin' Home
TTITLE18=Amazing Grace
TTITLE19=Silent Night
EXTD=
EXTT0=
EXTT1=
EXTT2=
EXTT3=
EXTT4=
EXTT5=
EXTT6=
EXTT7=
EXTT8=
EXTT9=
EXTT10=
EXTT11=
EXTT12=
EXTT13=
EXTT14=
EXTT15=
EXTT16=
EXTT17=
EXTT18=
EXTT19=
PLAYORDER=
